# xmcd
#
# Track frame offsets:
#	180
#	14531
#	26058
#	31198
#	42902
#	55656
#	68559
#	81360
#	90199
#	104048
#	113491
#	125790
#	139171
#	151792
#	164942
#	175723
#
# Disc length: 2502 seconds
#
# Revision: 1
# Processed by: cddbd v1.5.2PL0 Copyright (c) Steve Scherf et al.
# Submitted via: audiograbber 1.83.01
#
DISCID=ce09c410
DTITLE=Various Artist - Country Legends Vol.1 - CD2
DYEAR=2005
DGENRE=Country
TTITLE0=JUBILEERS - Boogie Woogie Johnson
TTITLE1=DIXIE RAMBLERS  - He's An Army Man
TTITLE2=GENE AUTREY  - Down Mexico Way
TTITLE3=HANK PENNY - I'm Counting The Days
TTITLE4=JIMMY WYBLE  - Huntin' Business All The Time
TTITLE5=RED WOODWARD - Cowboy Boogie
TTITLE6=SONS OF THE PIONEERS - Cigareetes, Whusky ...
TTITLE7=TOMMY MOONEY  - Bingo Boogie
TTITLE8=TOMMY DUNCAN - Gamblin' Polkadot Blues
TTITLE9="TENNESSEE" ERNIE FORD - Anticipation Blues
TTITLE10=RICHARD PRINE - Adam's Apple
TTITLE11=STUART HAMBLEN - Remember Me
TTITLE12=JOHNNY BOND - Mean Mama Boogie
TTITLE13=CARL SMITH - I Overlooked An Orchid 
TTITLE14=JOHNNY HICKS - Hamburger Hop
TTITLE15=HANK THOMPSON - The Wild Side Of Life
EXTD=
EXTT0=
EXTT1=
EXTT2=
EXTT3=
EXTT4=
EXTT5=
EXTT6=
EXTT7=
EXTT8=
EXTT9=
EXTT10=
EXTT11=
EXTT12=
EXTT13=
EXTT14=
EXTT15=
PLAYORDER=
